<svg width="474" height="808" viewBox="0 0 474 808" fill="none" xmlns="http://www.w3.org/2000/svg">
    <path d="M405.058 806.993C387.914 804.878 375.035 790.489 374.982 773.407C374.982 773.407 339.616 755.943 348.175 665.208C356.734 574.473 322.843 529.861 322.843 529.861C282.661 473.734 256.21 409.148 245.572 341.191C231.258 335.16 197.726 359.115 197.726 359.115C136.669 387.866 107.589 345.331 98.9374 328.669C103.775 332.098 116.707 331.087 151.701 303.978C209.382 259.195 245.917 283.255 245.917 283.255C281.377 228.722 269.535 218.867 309.539 161.535C349.544 104.204 474.276 152.245 474.342 152.245V807.899L405.058 806.993ZM397.562 454.751C397.761 454.015 413.657 395.698 409.444 381.755C409.444 381.755 395.09 430.717 390.665 425.566C390.665 425.566 294.787 402.689 285.231 388.891C285.231 388.891 308.277 445.014 340.081 453.581C351.365 451.124 362.861 449.758 374.41 449.508C382.49 448.864 390.572 450.694 397.562 454.751ZM95.8938 322.44C96.7382 324.606 97.7192 326.717 98.8311 328.761C97.8852 327.999 97.1285 327.033 96.6194 325.938C96.1101 324.842 95.8619 323.645 95.8938 322.44ZM62.6674 210.47C-46.5011 127.489 20.1378 0 20.1378 0C29.8797 63.9677 49.0181 108.737 100.599 140.813C156.167 175.306 279.756 171.614 279.756 171.614L245.478 247.303C232.277 249.225 218.952 250.19 205.607 250.194C155.17 250.194 105.702 236.423 62.6674 210.418V210.47Z" fill="white" fill-opacity="0.14" />
</svg>