<svg width="498" height="149" viewBox="0 0 498 149" fill="none" xmlns="http://www.w3.org/2000/svg">
<path d="M390.93 149C385.19 148.994 379.689 146.742 375.631 142.739C371.573 138.735 369.29 133.308 369.284 127.646V43.354C369.29 37.6925 371.573 32.2647 375.631 28.2614C379.689 24.2581 385.19 22.0063 390.93 22H476.355C488.303 22.0165 497.984 31.5673 498 43.354V127.63C498.006 139.428 488.315 148.995 476.355 149H390.93ZM377.431 43.354V127.63C377.437 131.166 378.863 134.555 381.398 137.056C383.933 139.556 387.368 140.964 390.953 140.97H476.376C479.961 140.965 483.398 139.557 485.933 137.057C488.468 134.556 489.896 131.166 489.902 127.63V43.354C489.886 35.9901 483.84 30.0254 476.376 30.0114H390.945C383.479 30.0183 377.431 35.9876 377.423 43.354H377.431ZM253.811 149C241.863 148.986 232.18 139.433 232.166 127.646V43.354C232.18 31.5744 241.851 22.0234 253.792 22H339.217C351.166 22.0165 360.847 31.5673 360.86 43.354V127.63C360.856 139.424 351.171 148.984 339.217 149H253.811ZM240.266 43.354V127.63C240.272 131.166 241.7 134.556 244.235 137.057C246.77 139.557 250.207 140.965 253.792 140.97H339.217C342.802 140.964 346.237 139.556 348.772 137.056C351.307 134.555 352.733 131.166 352.741 127.63V43.354C352.735 39.8174 351.307 36.4272 348.774 33.9264C346.239 31.4253 342.802 30.0176 339.217 30.0114H253.792C250.205 30.017 246.77 31.4243 244.235 33.9254C241.7 36.4265 240.272 39.817 240.266 43.354ZM118.645 149C106.698 148.984 97.0165 139.433 97 127.646V43.354C97.0165 31.5673 106.698 22.0165 118.645 22H204.071C209.811 22.0063 215.312 24.2581 219.37 28.2614C223.428 32.2647 225.711 37.6925 225.717 43.354V127.63C225.713 139.424 216.026 148.986 204.071 149H118.645ZM105.121 43.3517V127.63C105.137 134.992 111.183 140.956 118.645 140.97H204.071C207.656 140.965 211.093 139.557 213.628 137.057C216.163 134.556 217.589 131.166 217.597 127.63V43.354C217.591 39.817 216.163 36.4265 213.628 33.9254C211.093 31.4243 207.656 30.017 204.071 30.0114H118.645C115.06 30.017 111.624 31.4241 109.089 33.9246C106.554 36.4251 105.127 39.8151 105.121 43.3517ZM185.67 117.724H147.336C143.211 117.808 139.092 117.345 135.092 116.345C132.007 115.577 129.177 114.032 126.877 111.862C124.655 109.6 123.056 106.815 122.233 103.771C121.167 99.8336 120.67 95.7673 120.756 91.6925V74.7262C120.674 70.667 121.172 66.6166 122.233 62.694C123.048 59.6592 124.649 56.8859 126.877 54.6455C129.185 52.476 132.011 50.9163 135.092 50.1107C139.088 49.0848 143.208 48.6054 147.336 48.6855H170.942C175.087 48.6073 179.223 49.0868 183.236 50.1107C186.331 50.9071 189.171 52.4677 191.487 54.6455C193.699 56.8902 195.282 59.6638 196.082 62.694C196.85 65.5423 197.298 68.4656 197.414 71.4109L182.719 71.7146C182.635 71.0175 182.516 70.3251 182.362 69.64C182.047 68.1074 181.343 66.6775 180.316 65.4838C179.264 64.4206 177.933 63.6707 176.47 63.3202C174.465 62.8469 172.406 62.6318 170.346 62.68L147.89 62.7758C145.828 62.7269 143.77 62.9441 141.764 63.4183C140.298 63.7587 138.963 64.5082 137.918 65.5771C136.885 66.7405 136.182 68.1517 135.879 69.668C135.427 71.8026 135.221 73.9806 135.263 76.1607V90.3514C135.223 92.5477 135.43 94.7416 135.879 96.8931C136.198 98.4184 136.902 99.8397 137.925 101.026C138.977 102.088 140.311 102.837 141.773 103.19C143.777 103.663 145.835 103.878 147.895 103.83H179.196C179.859 103.886 180.526 103.797 181.15 103.567C181.774 103.337 182.337 102.972 182.8 102.5C183.7 101.113 184.1 99.4669 183.937 97.8277V96.3487C183.937 95.503 183.562 95.0708 182.8 95.0708H155C153.591 95.0708 152.897 94.3021 152.897 92.7952V85.4054C152.897 83.8845 153.607 83.1298 155 83.1298H194.57C196.464 83.1298 197.428 84.1089 197.447 86.0783V102.64C197.447 108.156 196.435 112.05 194.409 114.322C193.374 115.403 192.125 116.264 190.741 116.852C189.356 117.439 187.864 117.742 186.357 117.74C186.134 117.745 185.902 117.738 185.668 117.724H185.67ZM269.668 116.292C266.58 115.526 263.75 113.981 261.452 111.808C259.231 109.546 257.633 106.761 256.808 103.718C255.743 99.7806 255.245 95.715 255.33 91.641V74.6747C255.251 70.6155 255.747 66.5654 256.808 62.6427C257.623 59.6081 259.223 56.8344 261.452 54.594C263.762 52.4255 266.586 50.8658 269.668 50.0593C273.662 49.0361 277.784 48.557 281.912 48.6365H311.244C315.388 48.5587 319.521 49.0374 323.532 50.0593C326.63 50.8527 329.47 52.4138 331.784 54.594C333.995 56.8425 335.576 59.6192 336.373 62.6521C337.139 65.5001 337.588 68.4228 337.706 71.3666H323.009C322.927 70.668 322.805 69.9765 322.652 69.2896C322.338 67.7564 321.635 66.327 320.607 65.1355C319.556 64.0731 318.223 63.3234 316.763 62.9721C314.757 62.4977 312.697 62.2826 310.635 62.3319H282.453C280.393 62.2828 278.335 62.4979 276.331 62.9721C274.861 63.3031 273.523 64.0558 272.483 65.1355C271.443 66.3191 270.739 67.7518 270.437 69.2896C269.992 71.4132 269.787 73.5787 269.822 75.7471V90.536C269.787 92.7036 269.992 94.8684 270.437 96.9912C270.757 98.5161 271.461 99.9367 272.483 101.122C273.534 102.186 274.869 102.936 276.331 103.285C278.335 103.76 280.393 103.974 282.453 103.928H310.635C312.697 103.967 314.755 103.751 316.763 103.285C318.233 102.957 319.572 102.204 320.607 101.122C321.651 99.949 322.353 98.5238 322.652 96.9912C322.801 96.3558 322.912 95.6501 323.009 94.9143V94.9494H337.706C337.595 97.9149 337.149 100.859 336.375 103.727C335.588 106.772 334.001 109.559 331.776 111.808C329.47 113.986 326.626 115.532 323.525 116.292C319.509 117.28 315.376 117.745 311.237 117.67H281.91C281.586 117.67 281.26 117.67 280.936 117.67C277.136 117.674 273.35 117.211 269.665 116.292H269.668ZM454.839 117.602H398.477C396.582 117.602 395.635 116.609 395.635 114.64V51.5709C395.635 49.6013 396.582 48.6085 398.477 48.6085H453.15C459.66 48.6085 464.294 49.9534 467.048 52.6433C468.53 54.3046 469.659 56.243 470.369 58.3432C471.077 60.4434 471.348 62.6627 471.172 64.8693V69.5933C471.461 74.5205 469.168 79.2493 465.099 82.1207C467.265 83.4489 469.019 85.3372 470.173 87.5805C471.327 89.8236 471.835 92.336 471.643 94.8442V100.559C471.67 102.951 471.381 105.337 470.782 107.654C470.274 109.631 469.319 111.467 467.989 113.028C466.582 114.574 464.8 115.74 462.81 116.418C460.434 117.207 457.941 117.61 455.435 117.609C455.237 117.609 455.039 117.606 454.839 117.6V117.602ZM410.156 102.743C410.156 103.594 410.567 104.024 411.394 104.024H450.3C452.215 104.2 454.131 103.697 455.704 102.603C456.884 101.377 457.468 99.7061 457.313 98.0215V94.26C457.439 92.5382 456.799 90.8468 455.559 89.6271C453.646 88.3795 451.354 87.8283 449.073 88.0713H410.16V88.0501L410.156 102.743ZM410.156 63.5071V77.3054H449.065C451.319 77.5394 453.588 77.0202 455.511 75.8312C456.709 74.7074 457.334 73.1141 457.216 71.4879V68.1354C457.363 66.472 456.754 64.8318 455.557 63.6519C453.998 62.5676 452.099 62.0621 450.196 62.2246H411.39C410.564 62.2246 410.154 62.6521 410.154 63.5048L410.156 63.5071Z" fill="#423B32" fill-opacity="0.37"/>
<g clip-path="url(#clip0_1_6)">
<path d="M72.5846 143.838C69.5125 143.461 67.2046 140.897 67.1951 137.852C67.1951 137.852 60.8576 134.739 62.3915 118.567C63.9251 102.394 57.852 94.4424 57.852 94.4424C50.6516 84.4383 45.9116 72.9266 44.0054 60.8139C41.4404 59.7388 35.4315 64.0086 35.4315 64.0086C24.4905 69.1332 19.2796 61.5518 17.7291 58.5819C18.596 59.1931 20.9133 59.0129 27.1842 54.181C37.5203 46.1989 44.0672 50.4874 44.0672 50.4874C50.4214 40.7674 48.2995 39.0109 55.4681 28.792C62.6367 18.5733 84.9881 27.1362 85 27.1362V144L72.5846 143.838ZM71.2414 81.0548C71.2771 80.9237 74.1255 70.5292 73.3706 68.0441C73.3706 68.0441 70.7984 76.771 70.0054 75.8529C70.0054 75.8529 52.8245 71.7753 51.1122 69.3159C51.1122 69.3159 55.2418 79.3193 60.9409 80.8463C62.963 80.4084 65.0231 80.1648 67.0926 80.1203C68.5404 80.0056 69.9888 80.3318 71.2414 81.0548ZM17.1837 57.4716C17.335 57.8577 17.5108 58.234 17.7101 58.5983C17.5406 58.4626 17.405 58.2904 17.3138 58.0952C17.2225 57.8999 17.178 57.6865 17.1837 57.4716ZM11.2297 37.5141C-8.33278 22.7236 3.6086 0 3.6086 0C5.35431 11.4016 8.78383 19.3813 18.0268 25.0986C27.9844 31.2466 50.131 30.5884 50.131 30.5884L43.9886 44.0792C41.623 44.4218 39.2352 44.5939 36.8438 44.5945C27.8057 44.5945 18.9414 42.14 11.2297 37.5049V37.5141Z" fill="#423B32" fill-opacity="0.37"/>
</g>
<defs>
<clipPath id="clip0_1_6">
<rect width="85" height="144" fill="white"/>
</clipPath>
</defs>
</svg>
