<svg width="280" height="83" viewBox="0 0 280 83" fill="none" xmlns="http://www.w3.org/2000/svg">
<path d="M40.5412 80.5274C38.8253 80.3163 37.5364 78.8806 37.531 77.1762C37.531 77.1762 33.9915 75.4337 34.8481 66.3805C35.7047 57.3272 32.3128 52.876 32.3128 52.876C28.2912 47.2757 25.6439 40.8316 24.5792 34.051C23.1466 33.4492 19.7906 35.8394 19.7906 35.8394C13.6798 38.7081 10.7694 34.4641 9.90349 32.8016C10.3877 33.1437 11.6819 33.0428 15.1843 30.338C20.9572 25.8697 24.6138 28.2703 24.6138 28.2703C28.1627 22.8292 26.9775 21.8459 30.9813 16.1255C34.9851 10.4051 47.4687 15.1986 47.4754 15.1986V80.6178L40.5412 80.5274ZM39.791 45.3817C39.8109 45.3083 41.4018 39.4896 40.9801 38.0984C40.9801 38.0984 39.5435 42.9837 39.1006 42.4697C39.1006 42.4697 29.5048 40.1871 28.5485 38.8104C28.5485 38.8104 30.8549 44.4102 34.038 45.265C35.1674 45.0198 36.318 44.8835 37.4738 44.8586C38.2824 44.7943 39.0914 44.9769 39.791 45.3817ZM9.59888 32.1801C9.68338 32.3962 9.78156 32.6068 9.89284 32.8108C9.79818 32.7348 9.72245 32.6384 9.67149 32.5291C9.62052 32.4198 9.59569 32.3004 9.59888 32.1801ZM6.27346 21.0081C-4.65252 12.7284 2.01694 0.00799561 2.01694 0.00799561C2.99195 6.3905 4.90738 10.8575 10.0698 14.0579C15.6312 17.4995 28.0004 17.1311 28.0004 17.1311L24.5698 24.6831C23.2486 24.8749 21.915 24.9712 20.5794 24.9716C15.5314 24.9716 10.5805 23.5975 6.27346 21.0029V21.0081Z" fill="white"/>
<path d="M219.194 82.3441C215.97 82.3407 212.881 81.077 210.601 78.8304C208.322 76.5838 207.04 73.5377 207.037 70.3606V23.0569C207.04 19.8798 208.322 16.8338 210.601 14.5872C212.881 12.3406 215.97 11.0769 219.194 11.0734H267.176C273.887 11.0826 279.324 16.4424 279.333 23.0569V70.3514C279.336 76.9725 273.893 82.3416 267.176 82.3441H219.194ZM211.612 23.0569V70.3514C211.616 72.3359 212.416 74.2381 213.84 75.6413C215.264 77.0445 217.194 77.8344 219.207 77.8379H267.188C269.201 77.8348 271.131 77.0451 272.555 75.6417C273.979 74.2385 274.781 72.3361 274.785 70.3514V23.0569C274.776 18.9244 271.38 15.5771 267.188 15.5693H219.203C215.009 15.5731 211.612 18.923 211.608 23.0569H211.612ZM142.178 82.3441C135.467 82.3363 130.028 76.9751 130.02 70.3606V23.0569C130.028 16.4464 135.46 11.0865 142.167 11.0734H190.148C196.86 11.0826 202.297 16.4424 202.305 23.0569V70.3514C202.303 76.97 196.863 82.335 190.148 82.3441H142.178ZM134.57 23.0569V70.3514C134.573 72.3361 135.375 74.2385 136.799 75.6417C138.223 77.0451 140.154 77.8348 142.167 77.8379H190.148C192.162 77.8344 194.091 77.0445 195.515 75.6413C196.939 74.2381 197.74 72.3359 197.744 70.3514V23.0569C197.741 21.0723 196.939 19.1697 195.516 17.7663C194.092 16.3627 192.162 15.5727 190.148 15.5693H142.167C140.153 15.5724 138.223 16.3622 136.799 17.7658C135.375 19.1693 134.573 21.0721 134.57 23.0569ZM66.2581 82.3441C59.5475 82.335 54.1097 76.9751 54.1005 70.3606V23.0569C54.1097 16.4424 59.5475 11.0826 66.2581 11.0734H114.24C117.464 11.0769 120.554 12.3406 122.833 14.5872C125.112 16.8338 126.394 19.8798 126.398 23.0569V70.3514C126.395 76.97 120.955 82.3363 114.24 82.3441H66.2581ZM58.6616 23.0557V70.3514C58.6709 74.4828 62.0668 77.83 66.2581 77.8379H114.24C116.253 77.8348 118.184 77.0451 119.608 75.6417C121.032 74.2385 121.833 72.3361 121.837 70.3514V23.0569C121.834 21.0721 121.032 19.1693 119.608 17.7658C118.184 16.3622 116.253 15.5724 114.24 15.5693H66.2581C64.2446 15.5724 62.3145 16.3621 60.8905 17.7653C59.4667 19.1686 58.6651 21.071 58.6616 23.0557ZM103.904 64.7924H82.3732C80.056 64.8396 77.7428 64.5799 75.4962 64.0187C73.7632 63.5874 72.1733 62.7206 70.8818 61.5028C69.6335 60.2335 68.7355 58.6704 68.2734 56.9623C67.6747 54.7526 67.3953 52.4706 67.4434 50.1839V40.6626C67.3977 38.3847 67.6772 36.1117 68.2734 33.9103C68.7309 32.2072 69.6301 30.6509 70.8818 29.3936C72.1782 28.1761 73.7653 27.3008 75.4962 26.8487C77.7405 26.273 80.0545 26.004 82.3732 26.0489H95.6322C97.96 26.0051 100.283 26.2741 102.537 26.8487C104.276 27.2957 105.871 28.1715 107.171 29.3936C108.414 30.6533 109.303 32.2098 109.752 33.9103C110.184 35.5088 110.435 37.1493 110.501 38.8021L102.247 38.9726C102.2 38.5814 102.133 38.1928 102.046 37.8083C101.869 36.9482 101.474 36.1458 100.897 35.4759C100.306 34.8793 99.5588 34.4584 98.7368 34.2617C97.6108 33.9961 96.4545 33.8754 95.2971 33.9025L82.6844 33.9562C81.5259 33.9288 80.3699 34.0507 79.2433 34.3168C78.4201 34.5078 77.6701 34.9284 77.083 35.5283C76.5031 36.1812 76.108 36.9731 75.9377 37.824C75.6841 39.0219 75.5681 40.2442 75.5919 41.4676V49.4313C75.5697 50.6638 75.6856 51.895 75.9377 53.1024C76.1173 53.9584 76.5124 54.756 77.087 55.4218C77.6782 56.0177 78.4271 56.4384 79.2486 56.6359C80.3742 56.9015 81.53 57.0224 82.687 56.9951H100.268C100.64 57.027 101.015 56.9766 101.366 56.8475C101.716 56.7185 102.032 56.514 102.292 56.2491C102.798 55.4705 103.023 54.5468 102.931 53.6269V52.7969C102.931 52.3223 102.721 52.0798 102.292 52.0798H86.6775C85.8861 52.0798 85.4964 51.6484 85.4964 50.8028V46.6557C85.4964 45.8022 85.8954 45.3787 86.6775 45.3787H108.903C109.967 45.3787 110.508 45.9281 110.519 47.0333V56.3278C110.519 59.4229 109.951 61.6081 108.813 62.8834C108.231 63.49 107.53 63.973 106.753 64.303C105.975 64.6328 105.137 64.8025 104.29 64.8015C104.165 64.8041 104.035 64.8002 103.903 64.7924H103.904ZM151.084 63.9887C149.35 63.559 147.76 62.6919 146.469 61.4726C145.222 60.203 144.324 58.64 143.861 56.9323C143.263 54.7228 142.983 52.4413 143.031 50.155V40.6338C142.986 38.3558 143.265 36.0829 143.861 33.8815C144.319 32.1785 145.218 30.622 146.469 29.3647C147.767 28.1478 149.353 27.2725 151.084 26.8199C153.328 26.2457 155.643 25.9768 157.961 26.0214H174.437C176.764 25.9778 179.086 26.2464 181.339 26.8199C183.079 27.2652 184.674 28.1412 185.973 29.3647C187.215 30.6265 188.103 32.1848 188.551 33.8868C188.981 35.4851 189.233 37.1252 189.3 38.7772H181.044C180.999 38.3852 180.93 37.9972 180.844 37.6117C180.668 36.7513 180.273 35.9491 179.696 35.2805C179.105 34.6843 178.357 34.2636 177.536 34.0664C176.41 33.8002 175.253 33.6794 174.095 33.7071H158.265C157.108 33.6795 155.952 33.8003 154.827 34.0664C154.001 34.2521 153.249 34.6746 152.665 35.2805C152.081 35.9447 151.686 36.7487 151.516 37.6117C151.266 38.8034 151.151 40.0187 151.171 41.2356V49.5349C151.151 50.7513 151.266 51.9662 151.516 53.1575C151.696 54.0132 152.091 54.8105 152.665 55.4756C153.256 56.0726 154.005 56.4934 154.827 56.6896C155.952 56.9557 157.108 57.0764 158.265 57.0502H174.095C175.253 57.0722 176.409 56.951 177.536 56.6896C178.362 56.5052 179.114 56.0825 179.696 55.4756C180.282 54.8174 180.676 54.0176 180.844 53.1575C180.928 52.8009 180.99 52.4049 181.044 51.9919V52.0116H189.3C189.237 53.6758 188.987 55.328 188.552 56.9374C188.11 58.6463 187.219 60.2103 185.969 61.4726C184.674 62.6945 183.076 63.5625 181.334 63.9887C179.079 64.5432 176.757 64.8041 174.432 64.7622H157.96C157.778 64.7622 157.595 64.7622 157.413 64.7622C155.279 64.7644 153.152 64.5045 151.082 63.9887H151.084ZM255.091 64.7241H223.433C222.369 64.7241 221.837 64.1669 221.837 63.0616V27.6682C221.837 26.5629 222.369 26.0057 223.433 26.0057H254.142C257.798 26.0057 260.401 26.7605 261.948 28.27C262.781 29.2023 263.415 30.2901 263.813 31.4687C264.211 32.6473 264.364 33.8928 264.264 35.1311V37.7821C264.427 40.5472 263.139 43.2009 260.853 44.8123C262.07 45.5577 263.055 46.6174 263.703 47.8763C264.352 49.1351 264.637 50.545 264.529 51.9526V55.1596C264.544 56.5022 264.382 57.8408 264.045 59.1415C263.76 60.2506 263.224 61.2811 262.477 62.1569C261.687 63.0246 260.685 63.6793 259.568 64.0594C258.233 64.5025 256.833 64.7283 255.425 64.7281C255.314 64.7281 255.203 64.7264 255.091 64.7228V64.7241ZM229.993 56.3854C229.993 56.8627 230.224 57.104 230.688 57.104H252.541C253.617 57.2031 254.693 56.9204 255.577 56.3068C256.239 55.6185 256.567 54.681 256.48 53.7357V51.6248C256.551 50.6585 256.191 49.7093 255.495 49.0248C254.421 48.3247 253.133 48.0154 251.852 48.1517H229.995V48.1399L229.993 56.3854ZM229.993 34.3666V42.1101H251.847C253.113 42.2414 254.388 41.95 255.468 41.2828C256.141 40.6521 256.492 39.7579 256.425 38.8454V36.964C256.508 36.0305 256.166 35.1101 255.494 34.4479C254.618 33.8394 253.551 33.5557 252.483 33.6469H230.686C230.222 33.6469 229.992 33.8868 229.992 34.3653L229.993 34.3666Z" fill="white"/>
</svg>
